<svg width="26" height="26" viewBox="0 0 26 26" fill="none" xmlns="http://www.w3.org/2000/svg">
<path d="M11.75 19.25H14.25V14.25H19.25V11.75H14.25V6.75H11.75V11.75H6.75V14.25H11.75V19.25ZM13 25.5C11.2708 25.5 9.64583 25.1771 8.125 24.5313C6.60417 23.8646 5.28125 22.9687 4.15625 21.8437C3.03125 20.7187 2.13542 19.3958 1.46875 17.875C0.822917 16.3542 0.5 14.7292 0.5 13C0.5 11.2708 0.822917 9.64583 1.46875 8.125C2.13542 6.60417 3.03125 5.28125 4.15625 4.15625C5.28125 3.03125 6.60417 2.14583 8.125 1.5C9.64583 0.833333 11.2708 0.5 13 0.5C14.7292 0.5 16.3542 0.833333 17.875 1.5C19.3958 2.14583 20.7188 3.03125 21.8438 4.15625C22.9688 5.28125 23.8542 6.60417 24.5 8.125C25.1667 9.64583 25.5 11.2708 25.5 13C25.5 14.7292 25.1667 16.3542 24.5 17.875C23.8542 19.3958 22.9688 20.7187 21.8438 21.8437C20.7188 22.9687 19.3958 23.8646 17.875 24.5313C16.3542 25.1771 14.7292 25.5 13 25.5ZM13 23C15.7917 23 18.1563 22.0312 20.0938 20.0937C22.0313 18.1562 23 15.7917 23 13C23 10.2083 22.0313 7.84375 20.0938 5.90625C18.1563 3.96875 15.7917 3 13 3C10.2083 3 7.84375 3.96875 5.90625 5.90625C3.96875 7.84375 3 10.2083 3 13C3 15.7917 3.96875 18.1562 5.90625 20.0937C7.84375 22.0312 10.2083 23 13 23Z" fill="#1D1B20"/>
</svg>
