<svg width="24" height="26" viewBox="0 0 24 26" fill="none" xmlns="http://www.w3.org/2000/svg">
<path d="M8.25 18.625C7.375 18.625 6.63542 18.3229 6.03125 17.7188C5.42708 17.1146 5.125 16.375 5.125 15.5C5.125 14.625 5.42708 13.8854 6.03125 13.2813C6.63542 12.6771 7.375 12.375 8.25 12.375C9.125 12.375 9.86458 12.6771 10.4688 13.2813C11.0729 13.8854 11.375 14.625 11.375 15.5C11.375 16.375 11.0729 17.1146 10.4688 17.7188C9.86458 18.3229 9.125 18.625 8.25 18.625ZM3.25 25.5C2.5625 25.5 1.97396 25.2552 1.48438 24.7656C0.994792 24.276 0.75 23.6875 0.75 23V5.5C0.75 4.8125 0.994792 4.22396 1.48438 3.73438C1.97396 3.24479 2.5625 3 3.25 3H4.5V0.5H7V3H17V0.5H19.5V3H20.75C21.4375 3 22.026 3.24479 22.5156 3.73438C23.0052 4.22396 23.25 4.8125 23.25 5.5V23C23.25 23.6875 23.0052 24.276 22.5156 24.7656C22.026 25.2552 21.4375 25.5 20.75 25.5H3.25ZM3.25 23H20.75V10.5H3.25V23Z" fill="#1D1B20"/>
</svg>
