<svg width="24" height="24" viewBox="0 0 24 24" fill="none" xmlns="http://www.w3.org/2000/svg">
<path d="M10.25 17.25L19.0625 8.4375L17.3125 6.6875L10.25 13.75L6.6875 10.1875L4.9375 11.9375L10.25 17.25ZM3.25 23.25C2.5625 23.25 1.97396 23.0052 1.48438 22.5156C0.994792 22.026 0.75 21.4375 0.75 20.75V3.25C0.75 2.5625 0.994792 1.97396 1.48438 1.48438C1.97396 0.994792 2.5625 0.75 3.25 0.75H20.75C21.4375 0.75 22.026 0.994792 22.5156 1.48438C23.0052 1.97396 23.25 2.5625 23.25 3.25V20.75C23.25 21.4375 23.0052 22.026 22.5156 22.5156C22.026 23.0052 21.4375 23.25 20.75 23.25H3.25ZM3.25 20.75H20.75V3.25H3.25V20.75Z" fill="#1D1B20"/>
</svg>
