<svg width="26" height="24" viewBox="0 0 26 24" fill="none" xmlns="http://www.w3.org/2000/svg">
<path d="M13 23.25L11.1875 21.625C9.08333 19.7292 7.34375 18.0938 5.96875 16.7188C4.59375 15.3438 3.5 14.1146 2.6875 13.0313C1.875 11.9271 1.30208 10.9167 0.96875 10C0.65625 9.08333 0.5 8.14583 0.5 7.1875C0.5 5.22917 1.15625 3.59375 2.46875 2.28125C3.78125 0.96875 5.41667 0.3125 7.375 0.3125C8.45833 0.3125 9.48958 0.541667 10.4688 1C11.4479 1.45833 12.2917 2.10417 13 2.9375C13.7083 2.10417 14.5521 1.45833 15.5313 1C16.5104 0.541667 17.5417 0.3125 18.625 0.3125C20.5833 0.3125 22.2188 0.96875 23.5313 2.28125C24.8438 3.59375 25.5 5.22917 25.5 7.1875C25.5 8.14583 25.3333 9.08333 25 10C24.6875 10.9167 24.125 11.9271 23.3125 13.0313C22.5 14.1146 21.4063 15.3438 20.0313 16.7188C18.6563 18.0938 16.9167 19.7292 14.8125 21.625L13 23.25ZM13 19.875C15 18.0833 16.6458 16.5521 17.9375 15.2813C19.2292 13.9896 20.25 12.875 21 11.9375C21.75 10.9792 22.2708 10.1354 22.5625 9.40625C22.8542 8.65625 23 7.91667 23 7.1875C23 5.9375 22.5833 4.89583 21.75 4.0625C20.9167 3.22917 19.875 2.8125 18.625 2.8125C17.6458 2.8125 16.7396 3.09375 15.9063 3.65625C15.0729 4.19792 14.5 4.89583 14.1875 5.75H11.8125C11.5 4.89583 10.9271 4.19792 10.0938 3.65625C9.26042 3.09375 8.35417 2.8125 7.375 2.8125C6.125 2.8125 5.08333 3.22917 4.25 4.0625C3.41667 4.89583 3 5.9375 3 7.1875C3 7.91667 3.14583 8.65625 3.4375 9.40625C3.72917 10.1354 4.25 10.9792 5 11.9375C5.75 12.875 6.77083 13.9896 8.0625 15.2813C9.35417 16.5521 11 18.0833 13 19.875Z" fill="#1D1B20"/>
</svg>
